<svg xmlns="http://www.w3.org/2000/svg" xmlns:xlink="http://www.w3.org/1999/xlink" viewBox="0 0 701 612.84">
  <defs>
    <style>
      .cls-1, .cls-33, .cls-4 {
        fill: none;
      }

      .cls-2, .cls-29 {
        fill: #262626;
      }

      .cls-3 {
        isolation: isolate;
      }

      .cls-4 {
        stroke: #000;
      }

      .cls-33, .cls-4, .cls-5 {
        stroke-miterlimit: 10;
      }

      .cls-22, .cls-24, .cls-5 {
        fill: #fff;
      }

      .cls-5 {
        stroke: #29abe2;
      }

      .cls-33, .cls-5 {
        stroke-width: 2px;
      }

      .cls-32, .cls-6 {
        font-size: 16px;
      }

      .cls-6 {
        font-family: ArialNarrow-Bold, Arial Narrow;
        font-weight: 700;
      }

      .cls-7 {
        font-size: 13px;
      }

      .cls-32, .cls-7, .cls-8 {
        font-family: ArialNarrow, Arial Narrow;
      }

      .cls-8 {
        font-size: 14px;
      }

      .cls-9 {
        clip-path: url(#clip-path);
      }

      .cls-10 {
        fill: #333;
      }

      .cls-11 {
        fill: #ffecdb;
      }

      .cls-12 {
        fill: #3b3b3b;
      }

      .cls-13 {
        fill: #4d4d4d;
      }

      .cls-14, .cls-25, .cls-26 {
        fill: #4d2b23;
      }

      .cls-15 {
        fill: #f2ba99;
      }

      .cls-16 {
        fill: #e6e6e6;
      }

      .cls-17, .cls-19, .cls-20 {
        fill: #b3b3b3;
      }

      .cls-18, .cls-28 {
        fill: #e6d8cf;
      }

      .cls-18, .cls-19, .cls-20, .cls-25, .cls-26, .cls-27 {
        mix-blend-mode: multiply;
      }

      .cls-19 {
        opacity: 0.5;
      }

      .cls-21 {
        clip-path: url(#clip-path-2);
      }

      .cls-23 {
        clip-path: url(#clip-path-3);
      }

      .cls-24 {
        opacity: 0.3;
      }

      .cls-24, .cls-29 {
        mix-blend-mode: screen;
      }

      .cls-25 {
        opacity: 0.2;
      }

      .cls-26 {
        opacity: 0.25;
      }

      .cls-30 {
        fill: #b2b2b2;
      }

      .cls-31 {
        fill: #999;
      }

      .cls-33 {
        stroke: #ccc;
      }

      .cls-34 {
        fill: #ccc;
      }

      .cls-35 {
        letter-spacing: -0.06em;
      }
    </style>
    <clipPath id="clip-path" transform="translate(-99.5 -98.5)">
      <rect class="cls-1" x="524" y="199" width="118" height="118"/>
    </clipPath>
    <clipPath id="clip-path-2" transform="translate(-99.5 -98.5)">
      <path class="cls-2" d="M566.3,247.2c0,2.06,1.42,3.71,3.14,3.69s3.08-1.7,3.06-3.75-1.43-3.7-3.14-3.68S566.28,245.15,566.3,247.2Z"/>
    </clipPath>
    <clipPath id="clip-path-3" transform="translate(-99.5 -98.5)">
      <path class="cls-1" d="M596.15,246.91c0,2.05,1.43,3.7,3.14,3.68s3.08-1.69,3.06-3.74-1.43-3.7-3.14-3.69S596.13,244.86,596.15,246.91Z"/>
    </clipPath>
    <symbol id="Arrow_29" data-name="Arrow 29" viewBox="0 0 45.72 19.51">
      <rect class="cls-1" width="45.72" height="19.51"/>
    </symbol>
  </defs>
  <title>xai-1</title>
  <g class="cls-3">
    <g id="Layer_2" data-name="Layer 2">
      <rect class="cls-4" x="0.5" y="0.5" width="700" height="371.5"/>
    </g>
    <g id="Layer_3" data-name="Layer 3">
      <rect class="cls-1" x="2.5" y="131.5" width="149" height="149"/>
      <rect class="cls-5" x="18.5" y="100.5" width="144.98" height="118.89"/>
      <rect class="cls-5" x="162.52" y="100.5" width="144.98" height="118.89"/>
      <text class="cls-6" transform="translate(86.62 259.41)">XAI System</text>
      <text class="cls-6" transform="translate(316.53 259.41)">Explanation</text>
      <text class="cls-7" transform="translate(67.57 283.98)">The system takes input <tspan x="-4.44" y="15.6">from the current task and</tspan><tspan x="-9.48" y="31.2" xml:space="preserve"> makes a recommendation, </tspan><tspan x="11.85" y="46.8">decision, or action</tspan></text>
      <text class="cls-7" transform="translate(588.5 175.98)">The user makes a <tspan x="0" y="15.6">decision based on </tspan><tspan x="0" y="31.2">the explanation</tspan></text>
      <text class="cls-8" transform="translate(343.5 64.69)">Recommendation, <tspan x="0" y="16.8">decision, or action</tspan></text>
      <text class="cls-7" transform="translate(299.79 283.98)">The system provides an <tspan x="2.65" y="15.6">explanation to the user</tspan><tspan x="-21.04" y="31.2">that justifies its recommendation, </tspan><tspan x="13.63" y="46.8">decision, or action</tspan></text>
    </g>
    <g id="Layer_4" data-name="Layer 4">
      <rect class="cls-1" x="417.5" y="93.5" width="135" height="131"/>
      <g class="cls-9">
        <g>
          <g>
            <path class="cls-10" d="M635,372c2,10.43,3.14,23.27,4.16,33.07,1.27,12.11,2.09,62.44,2.84,73.15a217.15,217.15,0,0,1,21.86.84c0-28.54-.48-64.09-1.32-78.46-.63-10.86-5.69-56.31-17.66-89.71l-39.77-11.54-20.75,9.32-20.74-9.32L523.8,310.92l9.88,61.1,1.94,26.72-4.54,90s4.95.46,8.68.85l5,94.95,3.89,95.85c1,1.7,2.37,2.31,4.55,3,8.89.83,24.13-4.51,24.13-4.51l-.59-90.42s2.53-60.22,7.53-91.24c5,31,7.53,91.24,7.53,91.24l-.58,90.42s15.24,5.34,24.12,4.51c2.18-.72,3.53-1.33,4.55-3l3.9-95.85,5-94.95c3.74-.39,8.69-.85,8.69-.85l-4.55-90Z" transform="translate(-99.5 -98.5)"/>
            <g>
              <path class="cls-10" d="M640,706.83a3.67,3.67,0,0,0-1.29-2.47c-2.11-1.78-6.57-5.53-8.88-7.26-4.08-3.05-4.63-5.29-7.27-9.4a53.51,53.51,0,0,1-3.34-6.29,8.58,8.58,0,0,1-3.78,2c-4.94.46-11.85-1-17-2.36-3.33-.89-5.93-1.75-6.8-2a73.15,73.15,0,0,0-1.65,14.83,29.48,29.48,0,0,0,4.75,3.78,18.17,18.17,0,0,0,5,2.33l5.7-.31a11,11,0,0,1,2.47,3.48c1,1.83,4.28,4.06,8.4,6,3.48,1.66,9,2.31,13.8,2.16a61.78,61.78,0,0,0,10.24-1.43Z" transform="translate(-99.5 -98.5)"/>
              <path class="cls-10" d="M577.06,679c-.86.29-3.46,1.15-6.8,2-5.16,1.37-12.07,2.82-17,2.36a8.58,8.58,0,0,1-3.78-2,52.06,52.06,0,0,1-3.34,6.29c-2.63,4.11-3.19,6.35-7.27,9.4-2.3,1.73-6.77,5.48-8.88,7.26a3.71,3.71,0,0,0-1.29,2.47l-.29,3.06a61.78,61.78,0,0,0,10.24,1.43c4.75.15,10.31-.5,13.8-2.16,4.11-2,7.45-4.19,8.39-6a11,11,0,0,1,2.47-3.48L569,700a18.22,18.22,0,0,0,5-2.33,29.82,29.82,0,0,0,4.76-3.78A73.61,73.61,0,0,0,577.06,679Z" transform="translate(-99.5 -98.5)"/>
            </g>
            <path class="cls-11" d="M584.32,445.62q12.07,0,24.12-.84v-.21l-3.36-41.82V299.37l-4.28-4.92a73.63,73.63,0,0,1-6.32,6.8,78.31,78.31,0,0,1-10.15,7.44h0a79,79,0,0,1-10.15-7.44,72.7,72.7,0,0,1-6.31-6.8l-4.28,4.92V402.75l-3.36,41.82,0,.21q12,.84,24.12.84Z" transform="translate(-99.5 -98.5)"/>
            <path class="cls-12" d="M588.1,327s5.87-6.84,7.42-11.08c-4.27-4.07-11.17-7.25-11.2-7.23a47.07,47.07,0,0,0-11.2,7.23c1.56,4.24,7.42,11.08,7.42,11.08l-10.29,97.4,14.07,15.77,14.07-15.77Z" transform="translate(-99.5 -98.5)"/>
            <g>
              <path class="cls-13" d="M555.24,315.22a90.22,90.22,0,0,0-8.84,2.44c4.6,35.94,17.18,85.09,17.18,85.09V299.37h0l-6.48,1.88c-1.73,2.69-5.84,7.66-7.39,10.85A35.68,35.68,0,0,0,555.24,315.22Z" transform="translate(-99.5 -98.5)"/>
              <path class="cls-13" d="M613.4,315.22a90.13,90.13,0,0,1,8.85,2.44c-4.61,35.94-17.18,85.09-17.18,85.09V299.37h0l6.47,1.88c1.73,2.69,5.84,7.66,7.39,10.85A35.68,35.68,0,0,1,613.4,315.22Z" transform="translate(-99.5 -98.5)"/>
            </g>
            <path class="cls-14" d="M609,451.92l-.57-7.14a346.86,346.86,0,0,1-48.25,0l-.57,7.14c8.22.57,16.45.88,24.69.88S600.8,452.49,609,451.92Z" transform="translate(-99.5 -98.5)"/>
            <path class="cls-11" d="M662.59,480.46s-7.37-.16-9.82-.12-9.86.45-9.86.45-.07-1.51-.07-2.55c9.09.06,13.57.19,19.71.72Z" transform="translate(-99.5 -98.5)"/>
          </g>
          <path class="cls-15" d="M642.73,498.19l.35-9.83a64.52,64.52,0,0,1,3.35-7.76c2.26-.11,5-.24,6.34-.26,1.55,0,5.05,0,7.43.07l-.13,1.81s2.64,13.49,1.42,15.46c-4.06,6.54-5.67,9.62-5.67,9.62s-8.88,1.9-9.58.76a2.08,2.08,0,0,1,.5-2.74,3.5,3.5,0,0,1,.56-.32,10.06,10.06,0,0,1,1.33-1.12c1.42-1.13,1.91-5.83,2.2-6.54a5.68,5.68,0,0,0-.3-2.1,11.31,11.31,0,0,0-2-1.11c-1,1.54-1.48,7.48-1.73,8.4a20.72,20.72,0,0,1-1.13,2.82c-.69,1.29-3.57,1-3.57-1.05A32.4,32.4,0,0,1,642.73,498.19Z" transform="translate(-99.5 -98.5)"/>
          <g>
            <g>
              <g>
                <path class="cls-16" d="M552.68,447.39l-46.07-5.45a3.13,3.13,0,0,0-2.86,2.36c.38-1,1.07-1.62,1.88-1.52l46.39,5.6c1.29.16,2.34,1.93,2.34,3.95v50.86a3.75,3.75,0,0,1-1.1,2.91v0a5,5,0,0,0,2.3-4V451.18A3.86,3.86,0,0,0,552.68,447.39Z" transform="translate(-99.5 -98.5)"/>
                <path class="cls-16" d="M503.59,444.78h0v0Z" transform="translate(-99.5 -98.5)"/>
              </g>
              <path class="cls-17" d="M552,448.38l-46.39-5.6c-1.21-.15-2.19,1.31-2.19,3.26v49.09c0,1.95,1,3.69,2.19,3.88L552,506.47c1.29.21,2.34-1.26,2.34-3.28V452.33C554.36,450.31,553.31,448.54,552,448.38Z" transform="translate(-99.5 -98.5)"/>
            </g>
            <path class="cls-10" d="M523.8,310.92c-12,33.39-17.62,77.71-18.33,88.56-1,15,1.63,49.72,3.81,79.66a187.71,187.71,0,0,1,21.3-1.23c-.23-15.51-2.15-60.73-1.81-72.82.28-9.85,2.94-22.64,4.91-33.07Z" transform="translate(-99.5 -98.5)"/>
            <path class="cls-11" d="M510.22,480.51s7.36-.31,9.82-.32,9.86.25,9.86.25,0-1.49,0-2.53A187.07,187.07,0,0,0,510.23,479Z" transform="translate(-99.5 -98.5)"/>
            <path class="cls-15" d="M530.06,502.94s-1.13-.48-1.47-.64-.48-.5-.85-1.55a19.34,19.34,0,0,1-.75-6.28,13.43,13.43,0,0,1,2.25,1.55c1.1,1,2.9,6,3.33,7.28.66,1.37,1.1,1.71,2.74,1.25,1.45-.41.33-6.45.33-6.45l-2-6.94-5.39-8.62s-.31-.91-.76-2.18c-2.39-.08-5.87-.18-7.41-.17s-5,.13-7.35.22l.08,3s.15,6.94.57,8.21c.34,1,4.27,11,4.78,11.59s3.88,1.26,5.21,1.85,3.87,1.34,5.38,1.06,3-2.91,3-2.91Z" transform="translate(-99.5 -98.5)"/>
            <g>
              <path class="cls-18" d="M512.69,480.41l.07,2.61a26.36,26.36,0,0,1,5.18-1.55l9.51-1.11c-2.39-.08-5.87-.18-7.41-.17S515.06,480.32,512.69,480.41Z" transform="translate(-99.5 -98.5)"/>
              <path class="cls-19" d="M527,494.47a19.34,19.34,0,0,0,.75,6.28,5.55,5.55,0,0,0,.53,1.3h0s-.48-2.79-.56-4.23a4.52,4.52,0,0,1,.19-1.52s.22-.75,1.34-.28A13.43,13.43,0,0,0,527,494.47Z" transform="translate(-99.5 -98.5)"/>
              <path class="cls-20" d="M531.08,335.41a317.83,317.83,0,0,1-1,34.62c-1.55,16.41-3.89,31.89-3.89,39.74,0,8.55,2,61.8,2.11,68.16l2.31,0c-.23-15.51-2.15-60.73-1.81-72.82.28-9.85,2.94-22.64,4.91-33.07C533.68,372,533.82,362.5,531.08,335.41Z" transform="translate(-99.5 -98.5)"/>
            </g>
          </g>
          <g>
            <path class="cls-15" d="M621.79,245.37a1.27,1.27,0,0,0-.18-.06l-.16,0-.28,0a3.25,3.25,0,0,0-1.6.21,5.29,5.29,0,0,0-.68.32c0-12.24-1.85-23.32-8-31.37s-17-11.6-26.53-11.6-20.27,3.47-26.52,11.6-8,19.13-8,31.37a5.29,5.29,0,0,0-.68-.32,4.25,4.25,0,0,0-.92-.22,3.1,3.1,0,0,0-.68,0l-.28,0-.16,0a1.27,1.27,0,0,0-.18.06c-2.57,1-3.25,4.37-3,6.79a15.38,15.38,0,0,0,2.58,7c1.36,2,3.58,4.22,6.08,4.66h0a47.61,47.61,0,0,0,7.33,14.14c6.26,8.13,14.9,13.16,24.44,13.16s18.19-5,24.45-13.16a47.66,47.66,0,0,0,7.17-13.61c.06-.18.11-.36.17-.53h0c2.5-.44,4.72-2.65,6.08-4.66a15.38,15.38,0,0,0,2.58-7C625,249.74,624.36,246.36,621.79,245.37Z" transform="translate(-99.5 -98.5)"/>
            <g>
              <g>
                <path class="cls-2" d="M566.3,247.2c0,2.06,1.42,3.71,3.14,3.69s3.08-1.7,3.06-3.75-1.43-3.7-3.14-3.68S566.28,245.15,566.3,247.2Z" transform="translate(-99.5 -98.5)"/>
                <g class="cls-21">
                  <path class="cls-22" d="M570.59,249c0,.6.34,1.08.75,1.07s.73-.49.72-1.08-.34-1.07-.75-1.07S570.58,248.39,570.59,249Z" transform="translate(-99.5 -98.5)"/>
                </g>
              </g>
              <g>
                <path class="cls-2" d="M602.35,246.85c0,2.05-1.35,3.73-3.06,3.74s-3.12-1.63-3.14-3.68,1.35-3.73,3.06-3.75S602.33,244.79,602.35,246.85Z" transform="translate(-99.5 -98.5)"/>
                <g class="cls-23">
                  <path class="cls-22" d="M600.44,248.69c0,.59.34,1.07.75,1.07s.73-.49.72-1.09-.34-1.07-.75-1.06S600.43,248.09,600.44,248.69Z" transform="translate(-99.5 -98.5)"/>
                </g>
              </g>
            </g>
            <g>
              <g>
                <path class="cls-2" d="M597.64,255.78a18.3,18.3,0,0,1-3.85-.22c-2.52-.71-4.49-3.69-5.92-6.21l-.13-.22c-.88-1.57-1.51-2.53-2.1-2.8a3.07,3.07,0,0,0-1.33-.24,3,3,0,0,0-1.32.27c-.59.28-1.2,1.25-2,2.84l-.12.22c-1.39,2.55-3.3,5.57-5.79,6.32a17.66,17.66,0,0,1-3.85.31,52.76,52.76,0,0,1-9.59-.64c-1.55-.48-2.45-3-3.32-5.35s-1.69-4.65-3.26-5.51l0-2.93c1.42-.15,6.5-.67,11.87-.72a54.26,54.26,0,0,1,9.18.55,14.42,14.42,0,0,1,4.25,1.3,9.84,9.84,0,0,0,8-.08,14.21,14.21,0,0,1,4.22-1.38,54.67,54.67,0,0,1,9.17-.74c5.37-.05,10.45.37,11.88.5l0,2.92c-1.54.89-2.32,3.17-3.14,5.57s-1.68,4.9-3.22,5.42a51.85,51.85,0,0,1-9.57.82Zm2.65-14.31a40.63,40.63,0,0,0-7.51.69c-5.86,1.37-5.13,4.26-4.77,5.11,1.59,3.71,3.24,6.39,6.2,7.44a13,13,0,0,0,3.72.35,47.63,47.63,0,0,0,7.19-.67,4.3,4.3,0,0,0,3.22-2.61c1.12-2.7,2.48-7.63.47-8.93S603.15,241.44,600.29,241.47Zm-32,.31c-2.86,0-6.65.32-8.49,1.56s-.54,6.23.64,8.92a4.29,4.29,0,0,0,3.27,2.54,48.24,48.24,0,0,0,7.21.53,12.82,12.82,0,0,0,3.71-.43c2.93-1.1,4.54-3.82,6-7.56.35-.86,1-3.76-4.86-5A41.19,41.19,0,0,0,568.25,241.78Z" transform="translate(-99.5 -98.5)"/>
                <polygon class="cls-2" points="453.36 145.85 455.51 146.05 455.48 143.13 453.34 143.37 453.36 145.85"/>
                <polygon class="cls-2" points="516.22 145.22 514.07 145.47 514.04 142.54 516.2 142.75 516.22 145.22"/>
              </g>
              <g>
                <path class="cls-24" d="M572.61,241.93,567,255.18c1.35.11,2.67.16,3.86.15.4,0,.86,0,1.31,0l5.28-12.49a15,15,0,0,0-1.7-.47A29.34,29.34,0,0,0,572.61,241.93Z" transform="translate(-99.5 -98.5)"/>
                <path class="cls-24" d="M597.08,255.06h.85a42.85,42.85,0,0,0,4.49-.29l5.26-12.45a17.85,17.85,0,0,0-4.88-.8Z" transform="translate(-99.5 -98.5)"/>
              </g>
            </g>
            <path class="cls-2" d="M618.89,219c-3.06-9.59-9.67-10-9.67-10a28.73,28.73,0,0,0-21.09-9.63c-36-.86-39.89,27.14-40,31-.15,6.2,1,10.79,1.62,15.38a27.23,27.23,0,0,1,4.87,5.26c-.31-4.05-1.54-9.89-1.14-16.24.52-8.24,3.06-12.31,6.84-14.5C565,217.61,574.21,223,584,223c8.55-.09,14.75-2.75,21.57-7.8a29,29,0,0,0,2.34-2,12.19,12.19,0,0,1-3.64,5.06c10.87,3.13,11.2,23.27,10.7,32.08,1.78-2.83,2.36-3.49,3.95-4.52C620.17,234.27,621.81,228.1,618.89,219Z" transform="translate(-99.5 -98.5)"/>
            <g>
              <path class="cls-2" d="M605.73,241.75a1.09,1.09,0,0,1-.66-.22,9,9,0,0,0-8.64-1.06,1.12,1.12,0,0,1-.85-2.08,11.35,11.35,0,0,1,10.82,1.33,1.13,1.13,0,0,1-.67,2Z" transform="translate(-99.5 -98.5)"/>
              <path class="cls-2" d="M562.92,241.75a1.13,1.13,0,0,1-.67-2,11.35,11.35,0,0,1,10.82-1.33,1.12,1.12,0,0,1-.85,2.08,9,9,0,0,0-8.64,1.06A1.09,1.09,0,0,1,562.92,241.75Z" transform="translate(-99.5 -98.5)"/>
            </g>
            <path class="cls-15" d="M567.86,285.67v8.78a72.7,72.7,0,0,0,6.31,6.8,79,79,0,0,0,10.15,7.44h0a78.31,78.31,0,0,0,10.15-7.44,73.63,73.63,0,0,0,6.32-6.8v-8.78a27.72,27.72,0,0,1-32.93,0Z" transform="translate(-99.5 -98.5)"/>
            <path class="cls-22" d="M584.32,270.33a72.14,72.14,0,0,1-12-.72,12.65,12.65,0,0,0,24,0A72.21,72.21,0,0,1,584.32,270.33Z" transform="translate(-99.5 -98.5)"/>
          </g>
          <g>
            <g>
              <path class="cls-25" d="M631.59,711.23l1.32-.12.15,0c.94-.1,1.86-.23,2.71-.36-2.5-3.79-10-7.9-12.34-8.11-2.81-.26-14.07-3.44-15.85-5.7-4.46-5.68-4.21-11.19-9.2-15.85-3.33-.89-5.93-1.75-6.8-2a73.15,73.15,0,0,0-1.65,14.83,29.48,29.48,0,0,0,4.75,3.78,18.17,18.17,0,0,0,5,2.33l5.7-.31a11,11,0,0,1,2.47,3.48c1,1.83,4.28,4.06,8.4,6,3.48,1.66,9,2.31,13.8,2.16.44,0,.89,0,1.33-.08Z" transform="translate(-99.5 -98.5)"/>
              <path class="cls-25" d="M537.05,711.23l-1.31-.12-.16,0c-.94-.1-1.86-.23-2.71-.36,2.5-3.79,10-7.9,12.35-8.11,2.8-.26,14.06-3.44,15.84-5.7,4.46-5.68,4.21-11.19,9.2-15.85,3.34-.89,5.94-1.75,6.8-2a73.61,73.61,0,0,1,1.66,14.83,29.82,29.82,0,0,1-4.76,3.78,18.22,18.22,0,0,1-5,2.33l-5.71-.31a11,11,0,0,0-2.47,3.48c-.94,1.83-4.28,4.06-8.39,6-3.49,1.66-9.05,2.31-13.8,2.16-.45,0-.89,0-1.34-.08Z" transform="translate(-99.5 -98.5)"/>
            </g>
            <g>
              <path class="cls-26" d="M552.06,685.74c2.68.54,4.55.4,7.94-.41,2.06-.49,10.26-4.26,10.26-4.26-5.16,1.37-12.07,2.82-17,2.36a8.58,8.58,0,0,1-3.78-2c-.41.89-.85,1.8-1.31,2.7A12.51,12.51,0,0,0,552.06,685.74Z" transform="translate(-99.5 -98.5)"/>
              <path class="cls-26" d="M616.58,685.74c-2.68.54-4.55.4-7.94-.41-2.06-.49-10.26-4.26-10.26-4.26,5.16,1.37,12.07,2.82,17,2.36a8.58,8.58,0,0,0,3.78-2c.41.89.86,1.8,1.32,2.7A12.65,12.65,0,0,1,616.58,685.74Z" transform="translate(-99.5 -98.5)"/>
            </g>
            <g>
              <path class="cls-18" d="M647.53,504.78a13.12,13.12,0,0,1,1.1-.9c1.42-1.13,1.91-5.83,2.2-6.54a5.68,5.68,0,0,0-.3-2.1,6,6,0,0,1,2.23,2.43s-.72,2.32-2.1,5.66c-.91,1.3-2.19,1.19-3.32,1.7C647.4,505,647.46,504.86,647.53,504.78Z" transform="translate(-99.5 -98.5)"/>
              <path class="cls-18" d="M660.2,480.41l-.13,1.81a2.92,2.92,0,0,1,.06.32,34.72,34.72,0,0,0-5.28-1.07c-2.92-.34-8.42-.87-8.42-.87,2.26-.11,5-.24,6.34-.26C654.32,480.31,657.82,480.37,660.2,480.41Z" transform="translate(-99.5 -98.5)"/>
            </g>
            <g>
              <path class="cls-20" d="M584.32,312s2.34-.22,8.5,4c5.66,3.88,6.21,4.47,8.5,6.23,0,0-1.58-2-2.79-3.31s-3-3-3-3a47,47,0,0,0-11.21-7.23s-6.92,3.16-11.2,7.23c0,0-1.78,1.72-3,3s-2.79,3.31-2.79,3.31c2.29-1.76,2.84-2.35,8.5-6.23C582,311.81,584.32,312,584.32,312Z" transform="translate(-99.5 -98.5)"/>
              <path class="cls-20" d="M584.32,452.8c-7.74,0-15.49-.28-23.22-.79L561,453.5c7.88.52,15.71.79,23.3.79s15.43-.27,23.3-.79l-.08-1.49C599.81,452.52,592.07,452.8,584.32,452.8Z" transform="translate(-99.5 -98.5)"/>
              <path class="cls-20" d="M576,486.36s-1.59,54.18-3.11,97.34c-.77,21.71,1.32,86.95,1.58,96.16,1.95-.6,2.9-.94,2.9-.94l-.59-90.42s1.49-35.47,4.44-66c.86-9,1.88-17.73,3.09-25.25a19.51,19.51,0,0,0-3.13-5.82A24.42,24.42,0,0,0,576,486.36Z" transform="translate(-99.5 -98.5)"/>
              <path class="cls-20" d="M612.12,490.54a.73.73,0,0,0,.8.67l16-1.61-.07,1.58-16,2.63h-.3a3,3,0,0,1-3-2.73l-4.44-88.34Z" transform="translate(-99.5 -98.5)"/>
              <path class="cls-20" d="M556.52,490.54a.72.72,0,0,1-.79.67l-.18,0v2.57l.33.05h.29a3,3,0,0,0,3-2.73l4.45-88.34Z" transform="translate(-99.5 -98.5)"/>
              <path class="cls-20" d="M637.57,335.41c-.07,8.61,0,20.27,1,34.62,1.21,16.24,3.53,35.93,4.39,58.54,1.32,34.65,1.46,47.2,1.48,49.69l-2.5,0c-.75-10.71-1.57-61-2.84-73.15-1-9.8-2.19-22.64-4.16-33.07C635,372,634.83,362.5,637.57,335.41Z" transform="translate(-99.5 -98.5)"/>
            </g>
            <g>
              <g>
                <g class="cls-27">
                  <path class="cls-28" d="M584.28,262.78a10.59,10.59,0,0,1-3.52-.6.93.93,0,1,1,.62-1.76,8.85,8.85,0,0,0,5.88,0,.93.93,0,1,1,.64,1.75A10.46,10.46,0,0,1,584.28,262.78Z" transform="translate(-99.5 -98.5)"/>
                </g>
                <path class="cls-18" d="M616,263.6l0,.08a45.59,45.59,0,0,1-7.17,13.16c-6.26,7.86-15.14,11.35-24.68,11.35s-18-3.49-24.21-11.35a45.21,45.21,0,0,1-7.18-13.26,1.91,1.91,0,0,1-.15.21,47.61,47.61,0,0,0,7.33,14.14c6.26,8.13,14.9,13.16,24.44,13.16s18.19-5,24.45-13.16a47.66,47.66,0,0,0,7.17-13.61l.17-.53h0A1.56,1.56,0,0,1,616,263.6Z" transform="translate(-99.5 -98.5)"/>
                <path class="cls-18" d="M553.09,261.7c-1.91,2.67-5.85-1.55-7.21-3.46.18.3.36.6.56.89,1.36,2,3.58,4.22,6.08,4.66h0a1.91,1.91,0,0,0,.15-.21A3.3,3.3,0,0,0,553.09,261.7Z" transform="translate(-99.5 -98.5)"/>
                <path class="cls-18" d="M615.56,261.7a3.25,3.25,0,0,0,.41,1.9,1.56,1.56,0,0,0,.13.19h0c2.5-.44,4.72-2.65,6.08-4.66.2-.29.38-.59.56-.89C621.41,260.15,617.47,264.37,615.56,261.7Z" transform="translate(-99.5 -98.5)"/>
                <path class="cls-18" d="M551.24,250.14c-.56-1.38-1.83-2.93-3.46-2.88s-2.63,1.31-2.72,3.52C546.53,246.67,550,248.57,551.24,250.14Z" transform="translate(-99.5 -98.5)"/>
                <path class="cls-18" d="M617.41,250.14c.56-1.38,1.83-2.93,3.46-2.88s2.63,1.31,2.72,3.52C622.12,246.67,618.69,248.57,617.41,250.14Z" transform="translate(-99.5 -98.5)"/>
                <path class="cls-18" d="M562.88,219.57c7.26,1.06,15.53,5.09,21.21,5.09,6.68,0,13.78-3.43,20.27-8.66h0C598,220.5,592,222.87,584,223,575.77,223,567.93,219.2,562.88,219.57Z" transform="translate(-99.5 -98.5)"/>
              </g>
              <g>
                <path class="cls-29" d="M563.68,212.78c18.2-10.95,41.6-4.16,41.6-4.16a11.62,11.62,0,0,1-3.46,2.21C589.78,208.13,575.49,207.35,563.68,212.78Z" transform="translate(-99.5 -98.5)"/>
                <path class="cls-29" d="M556.81,215.24c17-15.27,33.36-13.11,49.72-8.93A29.24,29.24,0,0,0,594,200.07C583.5,199.17,569,201.37,556.81,215.24Z" transform="translate(-99.5 -98.5)"/>
              </g>
            </g>
          </g>
          <g>
            <path class="cls-30" d="M580.35,452.77q0-3.57.08-7.16c3.1,0,6.19,0,9.28,0h0a1.49,1.49,0,0,0-1.52-1.47q-3.87,0-7.74,0a1.49,1.49,0,0,0-1.52,1.47l-.11,7.16a1.51,1.51,0,0,0,1.52,1.52q4,0,8,0a1.5,1.5,0,0,0,1.51-1.52h0Q585.09,452.83,580.35,452.77Z" transform="translate(-99.5 -98.5)"/>
            <g>
              <path class="cls-31" d="M584.64,452.79H583.4l-3,0h0l-1.53,0h0a1.51,1.51,0,0,0,1.52,1.52q4,0,8,0a1.5,1.5,0,0,0,1.51-1.52h0C588.09,452.78,586.36,452.79,584.64,452.79Z" transform="translate(-99.5 -98.5)"/>
              <path class="cls-31" d="M589.71,445.57a1.49,1.49,0,0,0-1.52-1.45q-3.87,0-7.74,0a1.5,1.5,0,0,0-1.52,1.45Q584.33,445.66,589.71,445.57Z" transform="translate(-99.5 -98.5)"/>
            </g>
          </g>
        </g>
      </g>
      <text class="cls-32" transform="translate(55.36 158.53)">Explainable<tspan x="12.77" y="19.2">Models</tspan></text>
      <text class="cls-32" transform="translate(200.99 158.53)">Explanation<tspan x="8.75" y="19.2">Interface</tspan></text>
    </g>
    <g id="Layer_5" data-name="Layer 5">
      <use width="45.72" height="19.51" transform="translate(343.07 147.84)" xlink:href="#Arrow_29"/>
      <g>
        <line class="cls-33" x1="310.5" y1="125.5" x2="411.43" y2="125.5"/>
        <path class="cls-34" d="M523,224c-5.68,2.11-12.73,5.7-17.09,9.51l3.44-9.51-3.44-9.51C510.27,218.3,517.32,221.89,523,224Z" transform="translate(-99.5 -98.5)"/>
      </g>
      <line class="cls-33" x1="161.5" y1="32.5" x2="460.5" y2="32.5"/>
      <g>
        <line class="cls-33" x1="322.57" y1="189.5" x2="411.43" y2="189.5"/>
        <path class="cls-34" d="M410,288c5.68,2.11,12.73,5.7,17.09,9.51L423.65,288l3.44-9.51C422.73,282.3,415.68,285.89,410,288Z" transform="translate(-99.5 -98.5)"/>
        <path class="cls-34" d="M523,288c-5.68,2.11-12.73,5.7-17.09,9.51l3.44-9.51-3.44-9.51C510.27,282.3,517.32,285.89,523,288Z" transform="translate(-99.5 -98.5)"/>
      </g>
      <g>
        <line class="cls-33" x1="537.5" y1="147.5" x2="572.43" y2="147.5"/>
        <path class="cls-34" d="M684,246c-5.68,2.11-12.73,5.7-17.09,9.51l3.44-9.51-3.44-9.51C671.27,240.3,678.32,243.89,684,246Z" transform="translate(-99.5 -98.5)"/>
      </g>
      <g>
        <line class="cls-33" x1="485.5" y1="43.5" x2="485.5" y2="78.43"/>
        <path class="cls-34" d="M585,189c-2.11-5.68-5.7-12.73-9.51-17.09l9.51,3.44,9.51-3.44C590.7,176.27,587.11,183.32,585,189Z" transform="translate(-99.5 -98.5)"/>
      </g>
      <g>
        <line class="cls-33" x1="161.5" y1="33.5" x2="161.5" y2="68.43"/>
        <path class="cls-34" d="M261,179c-2.11-5.68-5.7-12.73-9.51-17.09l9.51,3.44,9.51-3.44C266.7,166.27,263.11,173.32,261,179Z" transform="translate(-99.5 -98.5)"/>
      </g>
      <text class="cls-6" transform="translate(471.48 36)"><tspan class="cls-35">T</tspan><tspan x="7.05" y="0">ask</tspan></text>
      <text class="cls-6" transform="translate(589.6 153)">Decision</text>
    </g>
  </g>
</svg>
